HIERARCHY
ROOT Hips
{
	OFFSET	0.00	0.00	0.00
	CHANNELS 6 Xposition Yposition Zposition Zrotation Xrotation Yrotation
	JOINT LeftUpLeg
	{
		OFFSET	 0.126116	-0.014019	-0.065224
		CHANNELS 3 Zrotation Xrotation Yrotation
		JOINT LeftLeg
		{
			OFFSET	 0.000000	 0.000000	 0.569914
			CHANNELS 3 Zrotation Xrotation Yrotation
			JOINT LeftFoot
			{
				OFFSET	 0.000000	 0.000000	 0.544423
				CHANNELS 3 Zrotation Xrotation Yrotation
				JOINT LeftToeBase
				{
					OFFSET	 0.000000	 0.000000	 0.207117
					CHANNELS 3 Zrotation Xrotation Yrotation
					End Site
					{
						OFFSET	 0.000000	 0.000000	 0.207117
					}
				}
			}
		}
	}
	JOINT RightUpLeg
	{
		OFFSET	-0.124023	-0.008373	-0.065224
		CHANNELS 3 Zrotation Xrotation Yrotation
		JOINT RightLeg
		{
			OFFSET	 0.000000	 0.000000	 0.570047
			CHANNELS 3 Zrotation Xrotation Yrotation
			JOINT RightFoot
			{
				OFFSET	 0.000000	 0.000000	 0.544354
				CHANNELS 3 Zrotation Xrotation Yrotation
				JOINT RightToeBase
				{
					OFFSET	 0.000000	 0.000000	 0.207540
					CHANNELS 3 Zrotation Xrotation Yrotation
					End Site
					{
						OFFSET	 0.000000	 0.000000	 0.207540
					}
				}
			}
		}
	}
	JOINT Spine
	{
		OFFSET	 0.000184	-0.007763	 0.117403
		CHANNELS 3 Zrotation Xrotation Yrotation
		JOINT Spine1
		{
			OFFSET	 0.000000	 0.000000	 0.137269
			CHANNELS 3 Zrotation Xrotation Yrotation
			JOINT Spine2
			{
				OFFSET	 0.000000	 0.000000	 0.156879
				CHANNELS 3 Zrotation Xrotation Yrotation
				JOINT LeftShoulder
				{
					OFFSET	 0.080501	-0.002496	 0.160144
					CHANNELS 3 Zrotation Xrotation Yrotation
					JOINT LeftArm
					{
						OFFSET	 0.000000	 0.000000	 0.164363
						CHANNELS 3 Zrotation Xrotation Yrotation
						JOINT LeftForeArm
						{
							OFFSET	 0.000000	 0.000000	 0.364576
							CHANNELS 3 Zrotation Xrotation Yrotation
							JOINT LeftHand
							{
								OFFSET	 0.000000	 0.000000	 0.360812
								CHANNELS 3 Zrotation Xrotation Yrotation
								JOINT LeftHandIndex1
								{
									OFFSET	 0.000000	 0.000000	 0.086006
									CHANNELS 3 Zrotation Xrotation Yrotation
									JOINT LeftHandIndex2
									{
										OFFSET	 0.000000	 0.000000	 0.047236
										CHANNELS 3 Zrotation Xrotation Yrotation
										JOINT LeftHandIndex3
										{
											OFFSET	-0.004284	-0.000551	 0.038166
											CHANNELS 3 Zrotation Xrotation Yrotation
											End Site
											{
												OFFSET	-0.004284	-0.000551	 0.038166
											}
										}
									}
								}
							}
						}
					}
				}
				JOINT Neck
				{
					OFFSET	 0.000000	 0.000000	 0.176489
					CHANNELS 3 Zrotation Xrotation Yrotation
					JOINT Head
					{
						OFFSET	 0.000000	-0.001747	 0.077940
						CHANNELS 3 Zrotation Xrotation Yrotation
						End Site
						{
							OFFSET	 0.000000	-0.001747	 0.077940
						}
					}
				}
				JOINT RightShoulder
				{
					OFFSET	-0.080363	 0.000306	 0.159706
					CHANNELS 3 Zrotation Xrotation Yrotation
					JOINT RightArm
					{
						OFFSET	 0.000000	 0.000000	 0.164196
						CHANNELS 3 Zrotation Xrotation Yrotation
						JOINT RightForeArm
						{
							OFFSET	 0.000000	 0.000000	 0.365611
							CHANNELS 3 Zrotation Xrotation Yrotation
							JOINT RightHand
							{
								OFFSET	 0.000000	 0.000000	 0.360648
								CHANNELS 3 Zrotation Xrotation Yrotation
								JOINT RightHandIndex1
								{
									OFFSET	 0.000000	 0.000000	 0.069977
									CHANNELS 3 Zrotation Xrotation Yrotation
									JOINT RightHandIndex2
									{
										OFFSET	 0.000000	 0.000000	 0.052305
										CHANNELS 3 Zrotation Xrotation Yrotation
										JOINT RightHandIndex3
										{
											OFFSET	 0.009002	-0.000782	 0.042196
											CHANNELS 3 Zrotation Xrotation Yrotation
											End Site
											{
												OFFSET	 0.009002	-0.000782	 0.042196
											}
										}
									}
								}
							}
						}
					}
				}
			}
		}
	}
}
MOTION
Frames:    10
Frame Time: 0.03333334
 0.454649	-0.352647	-0.064621	 96.800810	 0.629546	 3.666153	 5.061338	-3.902658	 176.462200	-11.334430	-33.865790	-5.227094	 171.981800	 86.690510	 179.311200	-2.377609	 30.154200	-0.037215	 1.799665	-12.621990	 178.865000	 3.693190	-47.909640	 5.792365	-175.125300	 82.222990	-178.920000	 2.403639	 22.161350	-0.129847	 6.652735	 0.099962	-1.450809	 12.181920	-2.506246	 0.702237	 15.109870	-4.472711	 1.594254	-91.809370	 77.640450	 179.113000	 37.950000	 70.447430	-41.020130	-8.210356	-4.004275	-19.825280	 5.122870	-10.779340	-5.426533	-3.812334	 37.924440	-2.927599	-2.450526	 36.184240	 0.754587	-1.378229	 35.397820	-2.634230	 0.579268	 6.167405	-3.241932	 4.213451	-14.017130	-0.476450	 89.766370	 79.234730	-179.658100	-37.495940	 70.844570	 40.045880	 4.234919	-8.057660	 31.199140	-10.099070	-11.668030	 9.787461	 6.437017	 35.671460	-0.771858	 2.830251	 35.756010	-7.813440	-2.350882	 35.473990	 5.254307
 0.460865	-0.353269	-0.064853	 96.145590	 0.651388	 3.698568	 5.057163	-3.952452	 176.472700	-11.270140	-33.708670	-5.164437	 171.904400	 86.623790	 179.420800	-2.377703	 30.136280	-0.036815	 1.774438	-12.649590	 178.924100	 3.653116	-47.606070	 5.716823	-175.293300	 82.158280	-178.761600	 2.403718	 22.116610	-0.130756	 6.638896	 0.078252	-1.494612	 12.175990	-2.533337	 0.691832	 15.089620	-4.488313	 1.594143	-91.809740	 77.626660	 179.117900	 36.832470	 69.877260	-39.896790	-7.967474	-3.989757	-19.785720	 5.095674	-10.778090	-5.428753	-3.812334	 37.924440	-2.927599	-2.450526	 36.184240	 0.754587	-1.378229	 35.397820	-2.634230	 0.556441	 6.078430	-3.209767	 4.184131	-13.877630	-0.524563	 89.765660	 79.249470	-179.648200	-36.448020	 70.304800	 39.116630	 4.217434	-7.829786	 30.802050	-9.830678	-11.670110	 9.788489	 6.437017	 35.671460	-0.771858	 2.830251	 35.756010	-7.813440	-2.350882	 35.473990	 5.254307
 0.463525	-0.352117	-0.065230	 96.338420	 0.692406	 3.693871	 5.041254	-4.070785	 176.493900	-11.178060	-33.857420	-5.141706	 171.977500	 86.466540	 179.420900	-2.376974	 30.274150	-0.039874	 1.764554	-12.706150	 178.985100	 3.677299	-47.715780	 5.748153	-175.552300	 81.969990	-178.499400	 2.403633	 22.162350	-0.129827	 6.591475	 0.066768	-1.545725	 12.131100	-2.589123	 0.699323	 15.010050	-4.559698	 1.594969	-91.809820	 77.599580	 179.141000	 36.670310	 69.863110	-39.657540	-8.036019	-4.009906	-20.095230	 5.016347	-10.779430	-5.435332	-3.812334	 37.924440	-2.927599	-2.450526	 36.184240	 0.754587	-1.378229	 35.397820	-2.634230	 0.487996	 6.019105	-3.215698	 4.109184	-13.805480	-0.529488	 89.765010	 79.274170	-179.642200	-36.344810	 70.388150	 39.076600	 4.277979	-7.780032	 30.523610	-9.839036	-11.674650	 9.793674	 6.437017	 35.671460	-0.771858	 2.830251	 35.756010	-7.813440	-2.350882	 35.473990	 5.254307
 0.458358	-0.351749	-0.065562	 96.468470	 0.738681	 3.719671	 5.025989	-4.185256	 176.512100	-11.096070	-34.009940	-5.125133	 171.976800	 86.323310	 179.485800	-2.376405	 30.380630	-0.042242	 1.792756	-12.771800	 178.975500	 3.746682	-47.873570	 5.836678	-175.763000	 81.779300	-178.244600	 2.403627	 22.170550	-0.129665	 6.543402	 0.025834	-1.582695	 12.109470	-2.647777	 0.685204	 14.970000	-4.626924	 1.599423	-91.809570	 77.594960	 179.151400	 36.605310	 69.828390	-39.587180	-8.100409	-4.016956	-20.335540	 4.928240	-10.783230	-5.443127	-3.812334	 37.924440	-2.927599	-2.450526	 36.184240	 0.754587	-1.378229	 35.397820	-2.634230	 0.466208	 5.912667	-3.322400	 4.091669	-13.697380	-0.410391	 89.764430	 79.279130	-179.631300	-36.277790	 70.439360	 39.032530	 4.308371	-7.734750	 30.304080	-9.830388	-11.680960	 9.800272	 6.437017	 35.671460	-0.771858	 2.830251	 35.756010	-7.813440	-2.350882	 35.473990	 5.254307
 0.451869	-0.351306	-0.065919	 96.561130	 0.783983	 3.739745	 5.007144	-4.310956	 176.535000	-10.999670	-34.185940	-5.105027	 171.959500	 86.169420	 179.578000	-2.375752	 30.502740	-0.044946	 1.861015	-12.888900	 178.969400	 3.871315	-48.144950	 6.008892	-176.063000	 81.571700	-177.857800	 2.403534	 22.222580	-0.128618	 6.489616	-0.007731	-1.599070	 12.095530	-2.735506	 0.664271	 14.942660	-4.726188	 1.609381	-91.808550	 77.611320	 179.162000	 36.587770	 69.772030	-39.613610	-8.171910	-4.014993	-20.559490	 4.818897	-10.789490	-5.453730	-3.812334	 37.924440	-2.927599	-2.450526	 36.184240	 0.754587	-1.378229	 35.397820	-2.634230	 0.468958	 5.738768	-3.474890	 4.089984	-13.568450	-0.274016	 89.764300	 79.261460	-179.622500	-36.261040	 70.478680	 39.059430	 4.321331	-7.694328	 30.090050	-9.824658	-11.689890	 9.809459	 6.437017	 35.671460	-0.771858	 2.830251	 35.756010	-7.813440	-2.350882	 35.473990	 5.254307
 0.450246	-0.350060	-0.066293	 96.599020	 0.817748	 3.730582	 5.004147	-4.438883	 176.568300	-10.902610	-34.372390	-5.075368	 171.993100	 86.013120	 179.635800	-2.375119	 30.617840	-0.047522	 1.886677	-13.092890	 178.975400	 4.082436	-48.583710	 6.238612	-176.163200	 81.377180	-177.650700	 2.403188	 22.411720	-0.124784	 6.419555	 0.006883	-1.587885	 12.059230	-2.839552	 0.647704	 14.884650	-4.847530	 1.618781	-91.806680	 77.648330	 179.177700	 36.596600	 69.696170	-39.707070	-8.247769	-4.003878	-20.755240	 4.692992	-10.798760	-5.467009	-3.812334	 37.924440	-2.927599	-2.450526	 36.184240	 0.754587	-1.378229	 35.397820	-2.634230	 0.433560	 5.560448	-3.520266	 4.046253	-13.485540	-0.269430	 89.764860	 79.221890	-179.619700	-36.321410	 70.511440	 39.231610	 4.322723	-7.667850	 29.886270	-9.837663	-11.701190	 9.821502	 6.437017	 35.671460	-0.771858	 2.830251	 35.756010	-7.813440	-2.350882	 35.473990	 5.254307
 0.450257	-0.348465	-0.066669	 96.576850	 0.827427	 3.702494	 5.043076	-4.552889	 176.633600	-10.835430	-34.546020	-5.032323	 172.172200	 85.869860	 179.565900	-2.374639	 30.705330	-0.049467	 2.010331	-13.404470	 179.023900	 4.220345	-49.197160	 6.510404	-176.226500	 81.231240	-177.488100	 2.402444	 22.794560	-0.117028	 6.321102	 0.077636	-1.544088	 11.971040	-2.932392	 0.636964	 14.757930	-4.961101	 1.619430	-91.804120	 77.700290	 179.202100	 36.608290	 69.609440	-39.826500	-8.321072	-3.985930	-20.908320	 4.563476	-10.810690	-5.481863	-3.812334	 37.924440	-2.927599	-2.450526	 36.184240	 0.754587	-1.378229	 35.397820	-2.634230	 0.317141	 5.549952	-3.408199	 3.926515	-13.554550	-0.471557	 89.765670	 79.167840	-179.617100	-36.375560	 70.546140	 39.417070	 4.349071	-7.639523	 29.708880	-9.833926	-11.713570	 9.835682	 6.437017	 35.671460	-0.771858	 2.830251	 35.756010	-7.813440	-2.350882	 35.473990	 5.254307
 0.450284	-0.346507	-0.067099	 96.503760	 0.837311	 3.625539	 5.140880	-4.660775	 176.760500	-10.795380	-34.720860	-4.962701	 172.347900	 85.723730	 179.534900	-2.374289	 30.767370	-0.050856	 2.154138	-13.913290	 179.114000	 4.412141	-50.142620	 6.885645	-176.284900	 81.139800	-177.328700	 2.401113	 23.422600	-0.104239	 6.199233	 0.228677	-1.450643	 11.857970	-3.036000	 0.635427	 14.600580	-5.093462	 1.618793	-91.800600	 77.773060	 179.239200	 36.649980	 69.494980	-40.041080	-8.401619	-3.959265	-21.037160	 4.414248	-10.827690	-5.500765	-3.812334	 37.924440	-2.927599	-2.450526	 36.184240	 0.754587	-1.378229	 35.397820	-2.634230	 0.166528	 5.590255	-3.205032	 3.771897	-13.714110	-0.763238	 89.767430	 79.091350	-179.627000	-36.449210	 70.580690	 39.648280	 4.399966	-7.599255	 29.531570	-9.801062	-11.728990	 9.854339	 6.437017	 35.671460	-0.771858	 2.830251	 35.756010	-7.813440	-2.350882	 35.473990	 5.254307
 0.450269	-0.344638	-0.067487	 96.415070	 0.846090	 3.508505	 5.284086	-4.731550	 176.902400	-10.805190	-34.845600	-4.886122	 172.837200	 85.613670	 179.194100	-2.373980	 30.823900	-0.052121	 2.224547	-14.515530	 179.289200	 4.630514	-51.206550	 7.256350	-176.228900	 81.144650	-177.324800	 2.399251	 24.191900	-0.088466	 6.101443	 0.415703	-1.326331	 11.777850	-3.131261	 0.650597	 14.495840	-5.221726	 1.623231	-91.797320	 77.846390	 179.271200	 36.705050	 69.382930	-40.289660	-8.473577	-3.930348	-21.112950	 4.280380	-10.845600	-5.518782	-3.812334	 37.924440	-2.927599	-2.450526	 36.184240	 0.754587	-1.378229	 35.397820	-2.634230	 0.080340	 5.561247	-3.149209	 3.686615	-13.820250	-0.877625	 89.769520	 79.012940	-179.647900	-36.535920	 70.605480	 39.882520	 4.457612	-7.558084	 29.394040	-9.750920	-11.743790	 9.872524	 6.437017	 35.671460	-0.771858	 2.830251	 35.756010	-7.813440	-2.350882	 35.473990	 5.254307
 0.450267	-0.342265	-0.067999	 96.283490	 0.857690	 3.304916	 5.533763	-4.784229	 177.119800	-10.888240	-34.954120	-4.778240	 173.856800	 85.501240	 178.374700	-2.373284	 30.949210	-0.054921	 2.275752	-15.472940	 179.546100	 5.008234	-52.845610	 7.821388	-176.136300	 81.268300	-177.361800	 2.395247	 25.589970	-0.059474	 5.987352	 0.669232	-1.116717	 11.697520	-3.241575	 0.692300	 14.405460	-5.401909	 1.635582	-91.793610	 77.945350	 179.299500	 36.779490	 69.232350	-40.648300	-8.569390	-3.887143	-21.162490	 4.108130	-10.871590	-5.542824	-3.812334	 37.924440	-2.927599	-2.450526	 36.184240	 0.754587	-1.378229	 35.397820	-2.634230	 0.023849	 5.460358	-3.173028	 3.634984	-13.929780	-0.930435	 89.772270	 78.908200	-179.680400	-36.685130	 70.628000	 40.230010	 4.540456	-7.501317	 29.245260	-9.665435	-11.763140	 9.897407	 6.437017	 35.671460	-0.771858	 2.830251	 35.756010	-7.813440	-2.350882	 35.473990	 5.254307
